<svg xmlns="http://www.w3.org/2000/svg" width="142.609" height="1727.051" viewBox="0 0 142.609 1727.051">
  <g id="etnik" transform="translate(0.5 0.5)">
    <g id="Layer_2" data-name="Layer 2" transform="translate(0 1726.051) rotate(-90)">
      <g id="Layer_5" data-name="Layer 5" transform="translate(0)">
        <path id="Path_13" data-name="Path 13" d="M4.468,0V14.565H0v1.22H5.854V1.22h5.415V19.44H0v1.22H12.648V0ZM38.432,29.148v6.1h15v-6.1ZM52.02,34.03H39.846V30.369h12.2ZM38.432,29.148v6.1h15v-6.1ZM52.02,34.03H39.846V30.369h12.2Zm8.208-18.238V0H18.077V20.673h8.16V6.1H52.048V9.732H31.638V24.285H0v1.22H33.024V10.947h20.4V4.881H24.85V19.465H19.456V1.22H58.842V14.565H38.432V25.548H58.814V38.856H33.024V29.148H0v1.22H31.638v9.72H60.228v-15.8H39.846V15.791Zm-21.8,13.357v6.1h15v-6.1ZM52.02,34.03H39.846V30.369h12.2Z" transform="translate(0 0)" fill="#47612f" stroke="#47612f" stroke-width="1"/>
        <path id="Path_14" data-name="Path 14" d="M0,0V40.1H8.187V6.1H61.182V9.733H40.793V30.381h8.194V15.8H69.376V0ZM67.942,14.571H47.614V29.155H42.2V10.947H62.589V4.882H6.8V38.863H1.386V1.22H67.956Z" transform="translate(65.622 0)" fill="#47612f" stroke="#47612f" stroke-width="1"/>
        <path id="Path_15" data-name="Path 15" d="M103.334,20.673V0H61.182V24.292H40.793v6.1H69.356V6.1h25.8v8.482H82.951V9.72H74.777V30.381H95.16v3.625H8.194V15.8h5.415V30.381h8.18V9.72H0V40.1H103.334v-15.8H82.951V20.673Zm-1.373,4.851V38.863H1.379V10.947H20.4V29.155H15V14.571H6.815V35.239H96.539v-6.1H76.157V10.947h5.408v4.882H96.539V4.882H67.976V29.155h-25.8V25.494h20.4V1.22h39.393v18.22h-20.4v6.1Z" transform="translate(79.218 0)" fill="#47612f" stroke="#47612f" stroke-width="1"/>
        <path id="Path_16" data-name="Path 16" d="M40.779,0V19.44H0v6.1H40.779v8.469H35.385V29.13H0V40.089H8.174V35.244h19v4.845H82.958v-15.8H54.367v6.1H74.75v3.661H48.939V6.1h5.428V20.685H82.958V9.7H74.722v4.845H62.548V6.1h25.8V40.089h8.235V0ZM95.174,38.856H89.738V4.881H61.162v10.91H76.129V10.947h5.449V19.44H55.747V4.881H47.559V35.268h28.57v-6.1H55.747V25.506H81.578V38.856H28.556V34.011H6.787v4.845h-5.4V30.375H34v4.881h8.194V24.273H1.386v-3.6H42.193V1.22H95.174Z" transform="translate(424.549 0)" fill="#47612f" stroke="#47612f" stroke-width="1"/>
        <path id="Path_17" data-name="Path 17" d="M0,.021V34.184H8.18V6.863H35.364V0Zm33.985,5.49H6.794V32.8H1.379V1.4H33.985Z" transform="translate(411.048 5.912)" fill="#47612f" stroke="#47612f" stroke-width="1"/>
        <path id="Path_18" data-name="Path 18" d="M54.381,0V34.007H0v6.1H62.555V6.1h46.187v9.7h8.187V0Zm61.134,14.572H110.1V4.882H61.175V38.865H1.379V35.24H55.767V1.22h59.748Z" transform="translate(343.228 0)" fill="#47612f" stroke="#47612f" stroke-width="1"/>
        <path id="Path_19" data-name="Path 19" d="M0,0V15.8H20.383V30.381H28.57V9.72H8.18V6.1H61.175V40.1h8.187V0ZM67.976,38.863H62.561V4.882H6.8v6.1H27.184V29.155H21.769V14.571H1.386V1.22H67.956Z" transform="translate(235.539 0)" fill="#47612f" stroke="#47612f" stroke-width="1"/>
        <path id="Path_20" data-name="Path 20" d="M81.551,9.72V30.381h8.181V15.8h5.415v18.2H8.18V30.381H28.57V9.72h-8.18V14.6H8.18V6.1h25.8v24.28H62.527v-6.1H42.145V0H0V20.673H20.389v3.618H0V40.1H103.34V9.72Zm20.4,29.143H1.386V25.524H21.769v-6.1H1.386V1.22H40.779v24.3H61.155v3.661H35.35V4.882H6.794V15.8H21.769V10.922h5.422V29.155H6.794v6.1H96.526V14.571H88.352V29.155H82.937V10.947h19.017Z" transform="translate(187.966 0)" fill="#47612f" stroke="#47612f" stroke-width="1"/>
        <path id="Path_21" data-name="Path 21" d="M28.584,40.082H0V24.291H20.383v-8.5H0V0H42.145V20.666h-8.16V6.1H8.174V9.763h20.41V24.291h46.2V6.1h-5.49V20.685H47.539V0h8.18V14.571h5.408V0h21.81V30.374H28.584ZM1.373,38.862H27.211V29.154H81.565V1.22H62.555V15.791H54.381V1.22H48.946V19.446h19.01V4.881h8.235v20.63H27.211V10.94H6.8V4.881H35.357V19.464h5.415V1.22H1.373v13.35H21.755v10.94H1.373Z" transform="translate(309.361 0)" fill="#47612f" stroke="#47612f" stroke-width="1"/>
        <path id="Path_22" data-name="Path 22" d="M14.954,6.863H0V0H14.954ZM1.373,5.49H13.582V1.373H1.373Z" transform="translate(317.104 27.77)" fill="#47612f" stroke="#47612f" stroke-width="1"/>
        <path id="Path_23" data-name="Path 23" d="M0,.041V1.414H24.85V5.49H0V6.863H26.237V0Z" transform="translate(0 33.205)" fill="#47612f" stroke="#47612f" stroke-width="1"/>
        <path id="Path_24" data-name="Path 24" d="M0,0V40.1H8.18V6.1H61.175V9.733H40.793V30.381h8.18V15.8H69.363V0ZM67.942,14.571H47.559V29.155H42.145V10.947H62.534V4.882H6.808V38.863H1.386V1.22H67.956Z" transform="translate(526.218 0)" fill="#47612f" stroke="#47612f" stroke-width="1"/>
        <path id="Path_25" data-name="Path 25" d="M103.334,20.673V0H61.155V24.292H40.793v6.1h28.6V6.1h25.8v8.482H82.951V9.72H74.777V30.381H95.16v3.625H8.194V15.8h5.415V30.381h8.18V9.72H0V40.1H103.334v-15.8H82.951V20.673Zm-1.373,4.851V38.863H1.379V10.947H20.4V29.155H15V14.571H6.815V35.239H96.539v-6.1H76.157V10.947h5.408v4.882H96.539V4.882H67.976V29.155h-25.8V25.494h20.4V1.22h39.386v18.22H81.565v6.1Z" transform="translate(539.738 0)" fill="#47612f" stroke="#47612f" stroke-width="1"/>
        <path id="Path_26" data-name="Path 26" d="M40.765,0V19.44H0v6.1H40.779v8.469H35.385V29.13H0V40.089H8.174V35.244h19v4.845H82.958v-15.8h-28.6v6.1H74.736v3.661H48.925V6.1h5.428V20.685H82.944V9.7H74.709v4.845h-12.2V6.1h25.8V40.089h8.235V0ZM95.16,38.856H89.725V4.881H61.148v10.91H76.116V10.947h5.449V19.44H55.733V4.881H47.546V35.268h28.57v-6.1H55.733V25.506H81.565V38.856H28.543V34.011H6.774v4.845h-5.4V30.375H33.985v4.881h8.16V24.273H1.373v-3.6H42.145V1.22H95.16Z" transform="translate(885.333 0)" fill="#47612f" stroke="#47612f" stroke-width="1"/>
        <path id="Path_27" data-name="Path 27" d="M0,.021V34.184H8.181V6.863H35.364V0Zm33.985,5.49H6.794V32.8H1.379V1.4H33.985Z" transform="translate(871.869 5.912)" fill="#47612f" stroke="#47612f" stroke-width="1"/>
        <path id="Path_28" data-name="Path 28" d="M54.381,0V34.007H0v6.1H62.555V6.1h46.187v9.7h8.187V0Zm61.162,14.572h-5.415V4.882H61.175V38.865H1.38V35.24H55.767V1.22h59.775Z" transform="translate(803.98 0)" fill="#47612f" stroke="#47612f" stroke-width="1"/>
        <path id="Path_29" data-name="Path 29" d="M0,0V15.8H20.383V30.381H28.57V9.72H8.181V6.1H61.175V40.1h8.187V0ZM67.976,38.863H62.561V4.882H6.8v6.1H27.184V29.155H21.769V14.571H1.386V1.22H67.956Z" transform="translate(695.623 0)" fill="#47612f" stroke="#47612f" stroke-width="1"/>
        <path id="Path_30" data-name="Path 30" d="M81.551,9.72V30.381h8.181V15.8h5.422v18.2H8.181V30.381h20.4V9.72H20.39V14.6H8.181V6.1h25.8v24.28h28.57v-6.1H42.165V0H0V20.673H20.39v3.618H0V40.1H103.34V9.72Zm20.4,29.143H1.386V25.524H21.769v-6.1H1.386V1.22H40.779v24.3H61.168v3.661h-25.8V4.882H6.794V15.8H21.769V10.922h5.442V29.155H6.794v6.1H96.526V14.571H88.352V29.155H82.937V10.947h19.017Z" transform="translate(648.152 0)" fill="#47612f" stroke="#47612f" stroke-width="1"/>
        <path id="Path_31" data-name="Path 31" d="M28.584,40.082H0V24.291H20.383v-8.5H0V0H42.131V20.666h-8.16V6.1H8.16V9.763H28.57V24.291h46.2V6.1H69.315V20.685H47.559V0H55.74V14.571h5.408V0H82.9V30.374H28.57ZM1.373,38.862H27.211V29.154H81.544V1.22H62.534V15.791H54.381V1.22H48.946V19.446h19.01V4.881h8.2v20.63H27.211V10.94H6.8V4.881H35.357V19.464h5.4V1.22H1.359v13.35H21.741v10.94H1.359Z" transform="translate(770.143 0)" fill="#47612f" stroke="#47612f" stroke-width="1"/>
        <path id="Path_32" data-name="Path 32" d="M14.954,6.863H0V0H14.954ZM1.373,5.49H13.582V1.373H1.373Z" transform="translate(777.017 27.77)" fill="#47612f" stroke="#47612f" stroke-width="1"/>
        <path id="Path_33" data-name="Path 33" d="M47.586,0V20.673H60.235v-1.22H48.966V1.22h5.415V15.791h5.854v-1.22H55.767V0ZM6.808,29.148v6.1H21.776v-6.1Zm1.373,1.22h12.2V34.03H8.18Zm-1.373-1.22v6.1H21.776v-6.1Zm1.373,1.22h12.2V34.03H8.18Zm12.2-14.583v8.5H0v15.8H28.59V30.375H60.228v-1.22H27.2v9.7H1.386V25.518H21.769V14.565H1.386V1.22H40.772V19.44H35.378V4.881H6.8v6.1H27.2V25.518H60.228V24.3H28.59V9.72H8.18V6.1H33.991V20.685h8.153V0H.007V15.791ZM6.8,29.142v6.1H21.769v-6.1Zm1.372,1.22h12.2v3.661H8.173Z" transform="translate(1665.816 0)" fill="#47612f" stroke="#47612f" stroke-width="1"/>
        <path id="Path_34" data-name="Path 34" d="M0,0V15.8H20.39V30.381h8.18V9.72H8.181V6.1H61.175V40.1h8.187V0ZM1.373,1.22h66.57V38.863H62.527V4.882H6.76v6.1H27.15V29.155H21.735V14.571H1.352Z" transform="translate(1591.066 0)" fill="#47612f" stroke="#47612f" stroke-width="1"/>
        <path id="Path_35" data-name="Path 35" d="M20.382,20.673v3.618H0V40.1H103.333V9.72H81.544V30.381h8.181V15.8h5.421v18.2H8.173V30.381h20.4V9.72H20.4V14.6H8.194V6.1H34v24.28H62.561v-6.1H42.172V0H.021V20.673Zm1.372,4.851v-6.1H1.366V1.22H40.751v24.3h20.4v3.661h-25.8V4.882H6.78V15.8H21.755V10.922H27.2V29.155H6.822v6.1h89.7V14.571H88.338V29.155H82.93V10.947h19.023V38.863H1.379V25.524Z" transform="translate(1543.5 0)" fill="#47612f" stroke="#47612f" stroke-width="1"/>
        <path id="Path_36" data-name="Path 36" d="M0,0V40.089H8.235V6.1h25.8v8.463h-12.2V9.72H13.6V20.7h28.59V6.1h5.429v27.91H21.81V30.35H42.192v-6.1H13.63v15.84H69.417V35.244h19v4.845h8.174V29.148H61.2V34.03H55.808V25.518H96.587v-6.1H55.808V0ZM1.373,1.22H54.388V20.673H95.16v3.612H54.388V35.268h8.16V30.387H95.16v8.481H89.807V34.011H68.038v4.845H15V25.518H40.834v3.661H20.451v6.1h28.57V4.881H40.834V19.465H15V10.947h5.449v4.845H35.419V4.881H6.842V38.856H1.407Z" transform="translate(1204.942 0)" fill="#47612f" stroke="#47612f" stroke-width="1"/>
        <path id="Path_37" data-name="Path 37" d="M0,0V6.863H27.184v27.3h8.18V0ZM1.373,1.373H33.978v31.4H28.563V5.456H1.373Z" transform="translate(1279.639 5.932)" fill="#47612f" stroke="#47612f" stroke-width="1"/>
        <path id="Path_38" data-name="Path 38" d="M0,0V15.8H8.187V6.1H54.374V40.1h62.555v-6.1H62.548V0ZM1.373,1.22H61.148V35.239h54.388v3.625H55.74V4.882H6.787v9.69H1.373Z" transform="translate(1265.895 0)" fill="#47612f" stroke="#47612f" stroke-width="1"/>
        <path id="Path_39" data-name="Path 39" d="M0,0V40.1H8.181V6.1H61.175V9.733H40.786V30.381h8.187V15.8H69.356V0ZM1.373,1.22h66.57V14.571H47.559V29.155H42.145V10.947H62.527V4.882H6.808V38.863H1.393Z" transform="translate(1421.15 0)" fill="#47612f" stroke="#47612f" stroke-width="1"/>
        <path id="Path_40" data-name="Path 40" d="M0,9.72V40.1H103.341v-15.8H82.951V20.673h20.389V0H61.155V24.292H40.772v6.1H69.39V6.1h25.8v8.482H82.978V9.72H74.8V30.381H95.188v3.625H8.194V15.8h5.415V30.381h8.18V9.72Zm1.373,1.22H20.389V29.155H14.975V14.571H6.8V35.239H96.533v-6.1h-20.4V10.947h5.422v4.882H96.533V4.882H67.963V29.155h-25.8V25.494H62.548V1.22H101.94v18.22H81.558v6.1H101.94v13.32H1.386Z" transform="translate(1434.745 0)" fill="#47612f" stroke="#47612f" stroke-width="1"/>
        <path id="Path_41" data-name="Path 41" d="M54.333,30.374H0V0H21.755V14.571h5.428V0h8.181V20.666H13.609V6.1H8.119V24.291h46.2V9.72h20.41V6.1H48.918V20.685H40.772V0H82.916V15.791H62.534v8.5H82.916V40.082H54.333Zm27.211-4.881H61.161V14.571H81.544V1.22h-39.4V19.446h5.415V4.881H76.115v6.1H55.706V25.511H6.76V4.881H15V19.464h19.01V1.22H28.556V15.791H20.4V1.22H1.393V29.154H55.726v9.708H81.564Z" transform="translate(1333.774 0)" fill="#47612f" stroke="#47612f" stroke-width="1"/>
        <path id="Path_42" data-name="Path 42" d="M0,0H14.954V6.863H0ZM13.582,1.373H1.373V5.49H13.582Z" transform="translate(1393.994 27.791)" fill="#47612f" stroke="#47612f" stroke-width="1"/>
        <path id="Path_43" data-name="Path 43" d="M0,0V40.089H8.235V6.1h25.8v8.463h-12.2V9.72H13.6V20.7h28.59V6.1h5.429v27.91H21.81V30.35H42.193v-6.1H13.6v15.84H69.39V35.244h19v4.845H96.56V29.148H61.175V34.03H55.781V25.518H96.56v-6.1H55.781V0ZM1.373,1.22H54.388V20.673H95.16v3.612H54.388V35.268h8.16V30.387H95.16v8.481h-5.4V34.011H67.99v4.845H14.968V25.518H40.8v3.661H20.417v6.1h28.57V4.881H40.8V19.465H14.968V10.947h5.449v4.845H35.426V4.881H6.849V38.856H1.414Z" transform="translate(987.536 0)" fill="#47612f" stroke="#47612f" stroke-width="1"/>
        <path id="Path_44" data-name="Path 44" d="M0,0V6.863H27.211v27.3h8.181V0ZM1.372,1.373H33.978v31.4H28.584V5.456H1.393Z" transform="translate(1062.209 5.932)" fill="#47612f" stroke="#47612f" stroke-width="1"/>
        <path id="Path_45" data-name="Path 45" d="M0,0V15.8H8.187V6.1H54.374V40.1h62.555v-6.1H62.548V0ZM1.373,1.22H61.148V35.239h54.388v3.625H55.74V4.882H6.787v9.69H1.373Z" transform="translate(1048.497 0)" fill="#47612f" stroke="#47612f" stroke-width="1"/>
        <path id="Path_46" data-name="Path 46" d="M54.34,30.374H0V0H21.755V14.571h5.408V0h8.181V20.666H13.6V6.1H8.1V24.291h46.2V9.72h20.4V6.1H48.9V20.685H40.752V0H82.9V15.791H62.513v8.5H82.9V40.082H54.34Zm27.211-4.881H61.161V14.571H81.551V1.22H42.124V19.446h5.422V4.881H76.095v6.1H55.712V25.511H6.767V4.881H15V19.464h19V1.22H28.57V15.791H20.417V1.22H1.407V29.154h54.34v9.708H81.585Z" transform="translate(1116.355 0)" fill="#47612f" stroke="#47612f" stroke-width="1"/>
        <path id="Path_47" data-name="Path 47" d="M0,0H14.954V6.863H0ZM13.582,1.373H1.373V5.49H13.582Z" transform="translate(1177.473 27.791)" fill="#47612f" stroke="#47612f" stroke-width="1"/>
        <path id="Path_48" data-name="Path 48" d="M0,0V6.863H26.237V5.49H1.386v-4.1h24.85V.014Z" transform="translate(1699.814 33.247)" fill="#47612f" stroke="#47612f" stroke-width="1"/>
      </g>
    </g>
  </g>
</svg>
