<svg xmlns="http://www.w3.org/2000/svg" width="115.85" height="81.35" viewBox="0 0 115.85 81.35">
  <g id="logo" transform="translate(-363 -100)">
    <g id="Layer_2" data-name="Layer 2" transform="translate(363 100)">
      <g id="Layer_1" data-name="Layer 1" transform="translate(0 0)">
        <path id="Path_4" data-name="Path 4" d="M0,17.966V14.549C0,13.41.633,12.84,1.906,12.84H13.448c1.226,0,1.835.57,1.835,1.709v3.4a9.184,9.184,0,0,1-.68,3.4L7.42,40.084c-.411,1.139-.095,1.7.949,1.7H13.2c1.408,0,2.112.57,2.112,1.7v3.409c0,1.131-.625,1.7-1.875,1.7H1.582C.538,48.6,0,48.026,0,46.895V43.485a9.493,9.493,0,0,1,.649-3.4L7.823,21.368c.459-1.139.063-1.7-1.187-1.7H1.891C.633,19.667,0,19.1,0,17.966Z" transform="translate(0 -2.667)" fill="#dbdda2"/>
        <path id="Path_5" data-name="Path 5" d="M22.8,19.671q0-6.811,6.8-6.811h3.409q6.8,0,6.8,6.811V33.245a1.519,1.519,0,0,1-1.7,1.74h-6.8A1.5,1.5,0,0,0,29.6,36.7v3.4a1.5,1.5,0,0,0,1.709,1.7,1.5,1.5,0,0,0,1.7-1.7,1.5,1.5,0,0,1,1.7-1.7h3.4a1.5,1.5,0,0,1,1.7,1.7v1.7q0,6.811-6.8,6.811H29.6q-6.8,0-6.8-6.811Zm6.8,1.7v5.1a1.5,1.5,0,0,0,1.709,1.7,1.519,1.519,0,0,0,1.7-1.756V21.372a1.5,1.5,0,0,0-1.7-1.7,1.5,1.5,0,0,0-1.709,1.7Z" transform="translate(-4.764 -2.671)" fill="#dbdda2"/>
        <path id="Path_6" data-name="Path 6" d="M50.357,12.851h3.4a1.511,1.511,0,0,1,1.7,1.693v25.5a1.519,1.519,0,0,0,1.7,1.732,1.5,1.5,0,0,0,1.7-1.7V14.544a1.511,1.511,0,0,1,1.7-1.709h3.394a1.5,1.5,0,0,1,1.717,1.709V51.992q0,6.811-6.811,6.8H50.286c-1.092,0-1.63-.562-1.63-1.7v-3.4c0-1.131.538-1.7,1.63-1.7H57.16a1.7,1.7,0,1,0,0-3.4h-1.7q-6.811,0-6.8-6.811V14.544a1.5,1.5,0,0,1,1.7-1.693Z" transform="translate(-10.164 -2.661)" fill="#dbdda2"/>
        <path id="Path_7" data-name="Path 7" d="M76.12,2.105h3.4a1.5,1.5,0,0,1,1.677,1.7v5.1a1.5,1.5,0,0,0,1.7,1.7A1.487,1.487,0,0,1,84.624,12.3v3.441a1.5,1.5,0,0,1-1.7,1.7A1.5,1.5,0,0,0,81.2,19.121V37.837a1.5,1.5,0,0,0,1.7,1.7,1.5,1.5,0,0,1,1.7,1.7v3.37a1.519,1.519,0,0,1-1.677,1.709H81.2q-6.811,0-6.8-6.811V3.806a1.5,1.5,0,0,1,1.724-1.7Z" transform="translate(-15.542 -0.42)" fill="#dbdda2"/>
        <path id="Path_8" data-name="Path 8" d="M97.657,1.7V5.1a1.5,1.5,0,0,1-1.7,1.7H92.546a1.5,1.5,0,0,1-1.7-1.7V1.7a1.5,1.5,0,0,1,1.7-1.7h3.4a1.5,1.5,0,0,1,1.709,1.7Zm0,10.212V44.168a1.519,1.519,0,0,1-1.7,1.709H92.546a1.527,1.527,0,0,1-1.7-1.74V11.909a1.527,1.527,0,0,1,1.7-1.74h3.4a1.519,1.519,0,0,1,1.709,1.74Z" transform="translate(-18.979 0.021)" fill="#dbdda2"/>
        <path id="Path_9" data-name="Path 9" d="M113.968,12.856h-8.512a1.5,1.5,0,0,0-1.7,1.693V46.887a1.511,1.511,0,0,0,1.7,1.677h3.409a1.5,1.5,0,0,0,1.7-1.669V21.336a1.7,1.7,0,1,1,3.4,0v25.59a1.424,1.424,0,0,0,1.147,1.582,2.009,2.009,0,0,0,.554.063h3.4a1.487,1.487,0,0,0,1.7-1.669V19.667Q120.771,12.856,113.968,12.856Z" transform="translate(-21.677 -2.666)" fill="#dbdda2"/>
      </g>
    </g>
    <g id="Layer_2-2" data-name="Layer 2" transform="translate(421.598 132.413)">
      <g id="Layer_1-2" data-name="Layer 1" transform="translate(0 0)">
        <path id="Path_1" data-name="Path 1" d="M46.152,1.741A3.061,3.061,0,0,0,43.724-.008,1.875,1.875,0,0,0,42.3.317V3.062a6.012,6.012,0,0,1,.309-.712c.348-.7.791-.989,1.289-.878A1.978,1.978,0,0,1,45.33,3.054,7.855,7.855,0,0,1,45.393,6.1a27.759,27.759,0,0,1-.878,3.845c-.332,1.1-.688,2.144-1.068,3.164a2.009,2.009,0,0,0,.554.063h.949c.38-1.076.72-2.175,1.028-3.3A21.8,21.8,0,0,0,46.769,5.3a7.6,7.6,0,0,0-.617-3.56Z" transform="translate(-8.839 0.037)" fill="#dbdda2"/>
        <path id="Path_2" data-name="Path 2" d="M56.805,19.694c-.309-.111-.6.079-.878.593a14.935,14.935,0,0,1-.617,1.582c-.245.562-.506,1.123-.791,1.669a18.249,18.249,0,0,1-1.424,2.31,13.836,13.836,0,0,1-2.088,2.318,8.773,8.773,0,0,1-2.492,1.582,3.489,3.489,0,0,1-2.547.15A2.128,2.128,0,0,1,44.9,29a5.806,5.806,0,0,1-.633-1.685,9.548,9.548,0,0,0,2.191-1.954,11.557,11.557,0,0,0,1.8-2.729,6.756,6.756,0,0,0,.609-2.761,3.955,3.955,0,0,0-.522-2.017,2.373,2.373,0,0,0-1.3-1.06,2.2,2.2,0,0,0-1.637.119,3.86,3.86,0,0,0-1.582,1.519,8.069,8.069,0,0,0-1,2.832h0a8.907,8.907,0,0,1-3.441,4.43,12.767,12.767,0,0,1-5.9,1.97,5.229,5.229,0,0,0-.728-.055h-.791c-.071-1.013-.111-1.97-.111-2.848V22.32c.087-.182.15-.364.221-.538a26.744,26.744,0,0,0,1.519-2.705q1-1.954,1.938-4.3c.206-.506.4-1.02.585-1.543h-.949a2.009,2.009,0,0,1-.554-.063c-.087.253-.19.506-.285.751-.483,1.226-.957,2.334-1.4,3.283s-.791,1.582-.981,1.962c0-.427-.055-1.171-.055-2.231s0-2.247.087-3.6.158-2.745.3-4.193a32.038,32.038,0,0,1,.577-3.9,14.793,14.793,0,0,1,.609-2.08V.44a2.563,2.563,0,0,0-.633.641,9.065,9.065,0,0,0-1.313,3.077,29.5,29.5,0,0,0-.791,4.422c-.174,1.661-.3,3.322-.356,4.984s-.079,3.235-.055,4.746.047,2.705.087,3.639h0a11.661,11.661,0,0,1-.791,1.582l-.933,1.788a11.185,11.185,0,0,1-.989,1.622,6.162,6.162,0,0,1-1.234,1.25,3.022,3.022,0,0,1-1.582.649q-.657.119-1.234-.791a9.406,9.406,0,0,1-1.052-2.223,21,21,0,0,1-.791-2.879,22,22,0,0,1-.435-2.721,1.155,1.155,0,0,0,.206-.269.609.609,0,0,0,.095-.372,3.955,3.955,0,0,0-1.234-2.618,2.808,2.808,0,0,0-2.144-.577,4.8,4.8,0,0,0-2.373,1.02,6.107,6.107,0,0,0-1.78,2.231c-.1.206-.2.411-.277.617a.285.285,0,0,0,0,.071q-.119.356-.285.791c-.285.7-.657,1.5-1.107,2.373a23.044,23.044,0,0,1-2.175,3.5,13.1,13.1,0,0,1-2.816,2.729,4.335,4.335,0,0,1-3.164.846,2.61,2.61,0,0,1-1.93-1.456,8.622,8.622,0,0,1-.854-3.837,11.866,11.866,0,0,1,.119-1.645,10.5,10.5,0,0,1,.4-1.843,7.262,7.262,0,0,1,.791-1.677,3.061,3.061,0,0,1,1.21-1.115c.744-.388,1.21.269,1.4,2a.87.87,0,0,0,.269.522.728.728,0,0,0,.467.174.657.657,0,0,0,.475-.206.791.791,0,0,0,.2-.562,5.126,5.126,0,0,0-1.107-2.9A1.827,1.827,0,0,0,3.8,17.353a2.887,2.887,0,0,0-1.7,1.194A9.3,9.3,0,0,0,.933,20.778a14.136,14.136,0,0,0-.7,2.523A11.739,11.739,0,0,0,0,25.445c0,2.373.4,4.074,1.226,5.063a3.892,3.892,0,0,0,2.99,1.582,6.629,6.629,0,0,0,3.844-1.084,13.163,13.163,0,0,0,3.164-2.9,21.28,21.28,0,0,0,1.582-2.318q0,.261,0,.5a7.436,7.436,0,0,0,.609,2.523A2.2,2.2,0,0,0,14.682,30.1a1.843,1.843,0,0,0,1.993-.641,11.194,11.194,0,0,0,1.764-2.373,25.028,25.028,0,0,0,1.637-3.757,16.509,16.509,0,0,0,1.732,4.9,3.528,3.528,0,0,0,3.164,2.017A3.307,3.307,0,0,0,27.4,29.139a16.715,16.715,0,0,0,2.136-2.761c.309-.506.593-.989.862-1.456l.087,2.745c-.047,0-.055,0-.055.063s-.142,0-.158,0a.127.127,0,0,0-.087,0c-.427.079-.664.293-.7.649a.791.791,0,0,0,.53.791.728.728,0,0,1,.229,0,1.226,1.226,0,0,0,.245,0l.4,6.518c.119,1.527.277,3.085.475,4.691a27.489,27.489,0,0,0,.854,4.335,10.806,10.806,0,0,0,1.4,3.164,2.215,2.215,0,0,0,2.08,1.115,3.085,3.085,0,0,0,2.144-1.258,8.18,8.18,0,0,0,1.4-2.935,18.8,18.8,0,0,0,.649-3.955,23.779,23.779,0,0,0-.087-4.248,16.755,16.755,0,0,0-.878-3.9,7.626,7.626,0,0,0-1.7-2.84,5.063,5.063,0,0,0-.585-.53l-.593-.475a11.019,11.019,0,0,0,5.166-2.579,7.412,7.412,0,0,0,1.258-1.408,13.527,13.527,0,0,0,.356,2.99,7.017,7.017,0,0,0,.965,2.373,2.65,2.65,0,0,0,1.645,1.194,5.055,5.055,0,0,0,2.745,0,8.8,8.8,0,0,0,2.563-1.163,13.172,13.172,0,0,0,2.16-1.788,12.791,12.791,0,0,0,1.582-2,28.659,28.659,0,0,0,1.732-3.109,14.373,14.373,0,0,0,1.028-2.69C57.28,20.129,57.122,19.813,56.805,19.694ZM18.645,22.5a25.717,25.717,0,0,1-1.471,3.757,6.4,6.4,0,0,1-1.527,2.207c-.388.245-.68.2-.878-.15a4.137,4.137,0,0,1-.316-1.764,16.612,16.612,0,0,1,.142-2.61,19.4,19.4,0,0,1,.522-2.634,7.594,7.594,0,0,1,.791-1.97,3.718,3.718,0,0,1,.886-.91,3.679,3.679,0,0,1,1.084-.546,2.207,2.207,0,0,1,1.107-.087,1.289,1.289,0,0,1,.846.546C19.42,19.868,19.025,21.221,18.645,22.5Zm17.672,8.567a11.628,11.628,0,0,1,1.582,3.4,19.31,19.31,0,0,1,.672,4.074,18.985,18.985,0,0,1-.182,4.019,10.07,10.07,0,0,1-1.028,3.251,3.307,3.307,0,0,1-1.835,1.74A1.8,1.8,0,0,1,34.2,46.463a10.909,10.909,0,0,1-.933-2.61,35.005,35.005,0,0,1-.649-3.544c-.174-1.313-.309-2.634-.4-3.955s-.174-2.626-.214-3.876-.063-2.373-.063-3.283h.949a7.476,7.476,0,0,0,.933-.055,4.794,4.794,0,0,1,2.492,1.93Zm7.768-5.34a9.793,9.793,0,0,1,0-1.986,18.984,18.984,0,0,1,.214-2,6.447,6.447,0,0,1,1.115-3.1c.467-.506.878-.657,1.226-.443a1.954,1.954,0,0,1,.7,1.44,4.153,4.153,0,0,1-.411,2.373,9.018,9.018,0,0,1-1.345,2.136A12.957,12.957,0,0,1,44.085,25.73Z" transform="translate(0 -0.063)" fill="#dbdda2"/>
        <path id="Path_3" data-name="Path 3" d="M59.5,11.5a.506.506,0,0,0-.316-.316.9.9,0,0,0-.53,0,.7.7,0,0,0-.467.4,16.976,16.976,0,0,1-1.938,2.729c-.7.791-1.456,1.661-2.278,2.555a.68.68,0,0,0,.087.91.7.7,0,0,0,.91.087c.894-.9,1.717-1.8,2.46-2.705a16.611,16.611,0,0,0,1.986-3.038A.7.7,0,0,0,59.5,11.5Z" transform="translate(-11.25 -2.299)" fill="#dbdda2"/>
      </g>
    </g>
  </g>
</svg>
