<svg xmlns="http://www.w3.org/2000/svg" viewBox="0 0 1776.77 1249.43"><defs><style>.cls-1{fill:#dbdda2;}.cls-2{fill:#cc4b0a;}</style></defs><title>logo krem</title><g id="Layer_2" data-name="Layer 2"><g id="Layer_6" data-name="Layer 6"><path class="cls-1" d="M0,233.83V181.75q0-26,29.16-26H206.23q28.11,0,28.12,26v52.08a139.39,139.39,0,0,1-10.42,52.07L113.52,572.33q-9.36,26,14.59,26h73.95q32.28,0,32.29,26v52.08q0,26.06-28.64,26H24q-24,0-23.95-26V624.4a145.42,145.42,0,0,1,9.9-52.07L119.77,285.9q10.41-26-18.22-26H29.16Q0,259.87,0,233.83Z"/><path class="cls-1" d="M276,259.87q0-104.16,104.15-104.16h52.08q104.14,0,104.15,104.16V467.65q0,26.57-26,26.57H406.19q-26,0-26,26v52.08q0,26,26,26t26-26q0-26,26-26h52.09q26,0,26,26v26q0,104.16-104.15,104.16H380.15Q276,702.52,276,598.36Zm104.15,26V364q0,26.07,26,26.05t26-26.57V285.9q0-26-26-26T380.15,285.9Z"/><path class="cls-1" d="M615,155.71h52.08q26,0,26,26V571.81q0,26.57,26,26.55t26-26V181.75q0-26,26-26h52.08q26,0,26,25.53V754.59q0,104.17-104.14,104.16H614q-25,0-25-26V780.63q0-26,25-26h105.2q26,0,26-26t-26-26h-26Q589,702.52,589,598.36V181.75Q589,155.73,615,155.71Z"/><path class="cls-1" d="M926.94,25.52H979q26,0,26,26v78.12q0,26.06,26,26t26,25.53v52.59q0,26-26,26t-26,26V572.33q0,26,26,26t26,26V676q0,26.55-26,26.56h-26q-104.14,0-104.14-104.16V51.55Q900.91,25.53,926.94,25.52Z"/><path class="cls-1" d="M1204,26V78.12q0,26.05-26,26h-52.09q-26,0-26-26V26q0-26,26-26H1178Q1204,0,1204,26Zm0,156.23V676q0,26.55-26,26.56h-52.09q-26,0-26-26.56V182.27q0-26.55,26-26.56H1178Q1204,155.71,1204,182.27Z"/><path class="cls-1" d="M1412.3,155.68H1282.05c-17.31,0-26,8.59-26,25.54v495.2c0,17.43,8.72,26.15,26,26.15h52.17c17.31,0,26-8.6,26-25.54V285.44c0-17.07,8.6-25.54,26-25.54s26,8.47,26,25.54V677c0,13.92,5.93,22.15,17.55,24.57a30.57,30.57,0,0,0,8.47,1h52c17.43,0,26-8.6,26-25.54V259.9Q1516.4,155.68,1412.3,155.68Z"/><path class="cls-2" d="M1471.25,528.33c-6.9-14.52-19.37-23.48-37.17-26.38-8.11-1.21-15.37.36-21.78,5v41.64a90.51,90.51,0,0,1,4.72-10.9c5.32-10.65,11.86-15.13,19.73-13.43,11.25,3.15,18.76,11,21.91,23.84s3.63,28.45,1,46.61c-2.66,18.4-7.26,37.89-13.43,58.83-5.09,16.82-10.53,32.8-16.34,48.17a30.57,30.57,0,0,0,8.47,1h14.53c5.81-16.46,11-33.29,15.73-50.47,6.78-25.42,10.78-48.79,11.74-70S1478,543,1471.25,528.33Z"/><path class="cls-2" d="M1769.51,801.54c-4.72-1.7-9.2,1.21-13.44,9.08a229,229,0,0,1-9.44,23.72c-3.75,8.6-7.75,17.19-12.11,25.54-5.32,10.66-12.7,22.52-21.78,35.35a212.37,212.37,0,0,1-32,35.47c-12,10.77-24.69,19.12-38.13,24.69s-26.39,6.54-39,2.3c-6.66-2.42-12-7-16.34-13.8a88.74,88.74,0,0,1-9.68-25.78c10.65-6.42,21.91-16.46,33.53-29.9s20.82-27.36,27.35-41.76c6.66-15.62,9.69-29.66,9.45-42.25s-2.91-22.88-8-30.87-11.62-13.55-19.86-16.22-16.34-2.05-25.05,1.82-16.71,11.62-24.21,23.24c-6.78,10.65-12,25.18-15.38,43.34l-.12.12c-12,30.5-29.53,53-52.65,67.78-26.75,17.19-56.77,27.24-90.3,30.15a79.27,79.27,0,0,0-11.14-.85h-12.23c-1.09-15.5-1.69-30.14-1.69-43.58v-37.4c1.33-2.79,2.3-5.57,3.39-8.23a408.19,408.19,0,0,0,23.48-41.4q15.26-30,29.66-65.85c3.15-7.75,6.17-15.62,9-23.61h-14.53a30.57,30.57,0,0,1-8.47-1c-1.33,3.88-2.91,7.75-4.36,11.5-7.38,18.77-14.65,35.71-21.42,50.24-7,14.65-12,24.69-15,30-.48-6.54-.84-17.92-.84-34.14s.48-34.37,1.33-55.07,2.42-42,4.6-64.16a491.31,491.31,0,0,1,8.83-59.67,225.81,225.81,0,0,1,9.33-31.84V506.91a39.27,39.27,0,0,0-9.69,9.8c-8.35,11.62-15.13,27.36-20.09,47.09q-7.82,29.6-11.74,67.67c-2.67,25.42-4.6,50.84-5.45,76.26s-1.21,49.51-.85,72.26.73,41.4,1.33,55.68v.61a176.87,176.87,0,0,1-11.74,23.6c-4.72,9-9.44,18-14.28,27.36a171.28,171.28,0,0,1-15.74,25.18,94.35,94.35,0,0,1-18.88,19.12,46.29,46.29,0,0,1-23.61,9.93q-10,1.81-18.88-11.62c-6-9-11.38-20.22-16.1-34a321,321,0,0,1-12.1-44.07,336.43,336.43,0,0,1-6.9-42.12,17.34,17.34,0,0,0,3.14-4.12,9.27,9.27,0,0,0,1.46-5.69c-3-19.24-9.32-32.56-18.89-40.06a42.92,42.92,0,0,0-32.8-8.84q-18.35,2.17-36,15.62a93.37,93.37,0,0,0-27.24,34.13c-1.57,3.15-3,6.3-4.23,9.44a4.17,4.17,0,0,0-.49,1.09q-1.82,5.44-4.36,11.62c-4.35,10.78-10,23-16.94,36.68a353,353,0,0,1-33.65,53.26c-13,16.71-27.24,30.63-43.1,41.76s-32.2,15.5-48.9,13c-12-1.82-21.67-9-29-21.91s-11.87-32.44-13.08-58.71a182.22,182.22,0,0,1,1.82-25.18,161.08,161.08,0,0,1,6.17-28.2,111.41,111.41,0,0,1,12.11-25.67c5.08-7.74,11.26-13.55,18.52-17.06,11.38-5.94,18.52,4.11,21.42,30.62a13.38,13.38,0,0,0,4.12,8A11.13,11.13,0,0,0,994.8,832a10,10,0,0,0,7.26-3.14c2.06-2.06,3-4.85,3-8.6-2.3-19.61-8-34.38-17-44.3s-18.88-13.32-29.65-10.29c-10.29,2.3-18.77,8.47-26,18.28a142.23,142.23,0,0,0-17.91,34.13,216.41,216.41,0,0,0-10.78,38.62,179.6,179.6,0,0,0-3.51,32.8c0,36.44,6.18,62.34,18.77,77.47,12.46,15.37,27.72,23.24,45.75,23.85,20.94.6,40.43-4.84,58.83-16.59a201.13,201.13,0,0,0,48.9-44.42,326.18,326.18,0,0,0,24.7-35.47q0,4,.36,7.63c1.21,15,4.36,27.84,9.32,38.61,5.21,10.78,11.5,17.43,19.37,19.73,10.17,3.63,20.46.37,30.5-9.8a171.36,171.36,0,0,0,27-35.95,383.11,383.11,0,0,0,25-57.5c5.93,29.41,14.77,54.35,26.51,75s28,30.87,48.91,30.87c13.68,0,26.14-5.57,37.16-16.95s22-25.42,32.68-42.25c4.72-7.74,9.08-15.13,13.2-22.27l1.33,42c-.73,0-.85.36-.85,1-1.33,0-2.18-.12-2.42-.48a2,2,0,0,0-1.33-.48c-6.54,1.21-10.17,4.47-10.78,9.92s2.18,9.44,8.11,12.59a11.2,11.2,0,0,1,3.51.48,18.3,18.3,0,0,0,3.76.37l4.36,98.77c1.81,23.36,4.23,47.21,7.26,71.78s7.26,46.49,13.07,66.34c5.57,19.73,12.83,35.83,21.43,48.42s19.36,18.15,31.83,17.06,23.49-7.62,32.81-19.24,16.46-26.63,21.42-44.91c5.21-18.16,8.47-38.25,9.93-60.16a364.15,364.15,0,0,0-1.33-65,256.26,256.26,0,0,0-13.44-59.68c-6.66-18.16-15.25-32.8-26-43.46a78.14,78.14,0,0,0-9-8.11c-3-2.42-5.93-4.84-9.08-7.26,30.62-6.54,56.89-19.61,79-39.46a113.44,113.44,0,0,0,19.25-21.55,206.8,206.8,0,0,0,5.45,45.76c3.26,14.4,8.11,26.51,14.76,36.43s14.89,16,25.18,18.28a77.4,77.4,0,0,0,42-.48,134.67,134.67,0,0,0,39.21-17.8,201.55,201.55,0,0,0,33-27.35,195.08,195.08,0,0,0,24.69-30.63A437.25,437.25,0,0,0,1761,857.1c7.51-15.49,12.71-29.17,15.74-41.16C1776.77,808.2,1774.35,803.35,1769.51,801.54Zm-583.94,43a394.21,394.21,0,0,1-22.51,57.5c-9.56,18.64-17.43,29.9-23.36,33.77s-10.41,3-13.44-2.3-4.6-14.4-4.84-27a253.33,253.33,0,0,1,2.18-40,296.12,296.12,0,0,1,8-40.31c3.75-12.83,7.86-22.88,12.58-30.14a57.35,57.35,0,0,1,13.56-13.92,56.29,56.29,0,0,1,16.59-8.35,33.6,33.6,0,0,1,16.09-1.33c5.21.84,9.45,3.63,13,8.35C1197.44,803.6,1191.38,824.9,1185.57,844.51ZM1456,975.61c10.41,14.88,18.52,32.32,24.33,52.05a295.25,295.25,0,0,1,10.29,62.34,290.53,290.53,0,0,1-2.78,61.49c-3,19.12-8.11,35.71-15.74,49.75s-16.82,22.88-28.2,26.63c-7.75-.73-14.41-6.3-20.22-16.71-5.56-10.53-10.53-23.84-14.28-39.94a538.73,538.73,0,0,1-9.93-54.23c-2.66-20.09-4.72-40.31-6.17-60.52-1.69-20.46-2.66-40.19-3.27-59.32s-1-35.83-1-50.23h14.53a115.37,115.37,0,0,0,14.28-.85C1432.87,950.79,1445.58,960.72,1456,975.61Zm118.87-81.71a149.66,149.66,0,0,1-.48-30.38,293.26,293.26,0,0,1,4.11-30.63c4.12-23.73,9.81-39.7,17.07-47.45s13.44-10.05,18.76-6.78,9,10.65,10.78,22-.37,23.61-6.3,36.8a137.54,137.54,0,0,1-20.58,32.68C1589.75,880,1582.13,888,1574.86,893.9Z"/><path class="cls-2" d="M1639,641.86a8,8,0,0,0-4.87-4.88,14.89,14.89,0,0,0-8.13-.44q-4.42.88-7.09,6.2a261.68,261.68,0,0,1-29.7,41.67c-10.63,12.26-22.31,25.41-34.87,39.15-3.1,5.32-2.65,9.9,1.33,13.89,3.85,3.84,8.43,4.28,13.89,1.33,13.74-13.74,26.3-27.48,37.68-41.37a255.53,255.53,0,0,0,30.43-46.54C1639.4,647.18,1640,644.22,1639,641.86Z"/></g></g></svg>