<svg xmlns="http://www.w3.org/2000/svg" width="1115.994" height="182.051" viewBox="0 0 1115.994 182.051">
  <g id="Layer_2" data-name="Layer 2" transform="translate(0 182.051) rotate(-90)">
    <g id="Layer_1" data-name="Layer 1">
      <path id="Path_49" data-name="Path 49" d="M149.115,861.123c-9.964-11.744-22-52.806-38.1-60.3.833-29.232,2.613-120.6,2.613-120.6,2.182-56.6,3.417-85.225,2.871-122.439.517-37.329-.718-65.871-2.871-122.468,0,0-1.78-91.255-2.613-120.6,16.109-7.437,28.14-48.5,38.1-60.3,10.653-12.577,25.642-49.963,26.618-55.534a74.17,74.17,0,0,1,6.26-15.1s-3.589-6.26-6.892-.459-10.165,13.927-32.448,40.66c-15.879,19.124-26.906,57.946-31.988,78.477a395.66,395.66,0,0,1,1.78-53.869c.4-2.613.689-6.116.89-10.194.775-13.955.775-35.118.574-54.3,2.441-6.346,9.907-25.269,16.884-32.218,8.356-8.442,22.771-35.606,22.771-35.606l-5-2.125a210.189,210.189,0,0,1-22.225,35.434,91.886,91.886,0,0,0-12.577,19.842c-.23-14.788-.488-26.417-.431-29.318,0-5.743,12.031-18.894,18.492-53.151,3.13-16.109-2.182-48.815-2.182-48.815h-7.093s7.006,22.168,3.3,43.417c-4.939,28-13.611,44.766-17.229,55.994a68.112,68.112,0,0,0-3.273-8.327,36.611,36.611,0,0,0,1.407-13.008c-.976-5.743-14.96-49.131-35.233-64.034S53.036,2.613,53.036,2.613L49.389,0s-17.8,24.522-6.748,49.418,14.041,28.226,20.1,37.329,6.662,23.345,27.8,35.979c13.84,8.327,16.281,25.671,16.281,25.671-.2,14.845,2.871,47.781,1.953,75.433a195.261,195.261,0,0,1-7.351-18.923c-2.871-9.476-18.176-54.558-18.176-54.558l-4.968,5s6.518,11.486,17.4,47.953c5.341,17.8,9.677,26.417,12.663,30.811a127.667,127.667,0,0,1-1.752,14.1,210.447,210.447,0,0,0-2.613,34.716l-2.871-3.848c-1.12-12.433-24.723-44.766-38.621-47.437-17.229-3.331-13.927-22.972-25.7-33.165s-32.706-8.327-36.783.4c0,0,15.822,1.321,34.946,32.735,14.9,23.4,47.465,51.686,62.454,52.289a3.618,3.618,0,0,0,2.326-.488l4.192,6.317c.144,37.76,4.135,145.755,4.135,145.755s3.3,39.454,2.412,122.468c.89,83.014-2.412,122.439-2.412,122.439s-3.991,108.024-4.135,145.784l-4.192,6.289a3.791,3.791,0,0,0-2.326-.488c-14.989.488-47.551,28.887-62.454,52.318C15.822,915.623,0,917.03,0,917.03c4.077,8.614,24.982,10.481,36.87.373s8.385-29.863,25.843-33.165c13.9-2.67,37.5-35,38.621-47.437l2.871-3.848a210.163,210.163,0,0,0,2.613,34.716,127.659,127.659,0,0,1,1.752,14.1c-2.871,4.393-7.322,13.151-12.663,30.811-10.883,36.382-17.4,47.953-17.4,47.953l4.767,5.14s15.276-45.111,18.176-54.558a193.384,193.384,0,0,1,7.351-18.952c.89,27.652-2.154,60.588-1.953,75.433,0,0-2.441,17.229-16.281,25.671-21.134,12.634-21.651,26.963-27.8,36.008s-9.016,12.319-20.1,37.329,6.748,49.389,6.748,49.389l3.647-2.613s-1.78-34.745,18.492-49.648,34.257-58.176,35.233-64.034a36.611,36.611,0,0,0-1.407-13.008,65.179,65.179,0,0,0,3.3-8.27c3.589,11.285,12.261,28.026,17.229,56.022,3.7,21.22-3.3,43.531-3.3,43.531H129.7s5.312-32.763,2.182-48.815c-6.461-34.257-18.406-47.465-18.492-53.122,0-2.871.2-14.558.431-29.346a91.137,91.137,0,0,0,12.491,19.813,210.887,210.887,0,0,1,22.311,35.348l5-2.067s-14.357-27.164-22.771-35.577c-6.978-6.949-14.357-25.843-16.884-32.247.2-19.181.2-40.2-.574-54.271-.2-4.106-.488-7.609-.89-10.222a395.494,395.494,0,0,1-1.78-53.869c5.082,20.56,16.109,59.353,31.988,78.477,22.283,26.762,29.2,34.86,32.448,40.717s6.892-.431,6.892-.431a74.654,74.654,0,0,1-6.26-15.535C174.757,911.058,159.768,873.7,149.115,861.123ZM139.9,235.632c6.174-6.6,30.868-39.368,32.39-41.234-.459,1.407-8.1,24.005-13.008,31.586s-17.8,26.073-18.923,29.576-12.232,33.567-22.2,39.712C118.591,293.722,133.638,242.409,139.9,235.632Zm-63-133.638c-3.79-7.925-12.778-22.627-17.229-29.6A216.366,216.366,0,0,1,45.455,41.751C41.177,30.265,46.6,15.391,46.6,15.391S55.821,44.91,62.311,49.849c8.04,6.059,17.229,22.484,25.843,36.783S100.5,121.664,100.5,121.664,80.6,109.948,76.9,101.994ZM96.022,275.66c-3.7,1.752-29.318-12.2-41.349-27.308a308.745,308.745,0,0,1-24.838-33.941,43.273,43.273,0,0,0-19.382-17.056s7.552-3.273,21.134,3.187,10.51,33.194,30.466,38.65C80.4,244.074,99.783,273.909,96.022,275.66ZM62.052,876.686C42.1,882.171,45.2,908.933,31.586,915.336s-21.134,3.216-21.134,3.216a43.5,43.5,0,0,0,19.382-16.913,307.849,307.849,0,0,1,24.723-34.113C66.589,852.451,92.2,838.5,95.907,840.219S80.4,871.719,62.052,876.686Zm26.1,152.618c-8.442,14.357-17.717,30.725-25.843,36.783-6.49,4.881-15.707,34.458-15.707,34.458s-5.427-14.932-1.149-26.36a212.859,212.859,0,0,1,14.214-30.61c4.365-7.006,13.352-21.708,17.229-29.633s23.6-19.727,23.6-19.727S96.625,1015,88.154,1029.3ZM139.84,880.247c-6.26-6.748-21.306-58.061-21.737-59.7,9.964,6.145,21.048,36.123,22.2,39.741s13.754,21.737,18.779,29.6,12.548,30.179,13.008,31.586c-1.321-1.838-26.015-34.63-32.189-41.234Z" fill="#47612f"/>
    </g>
  </g>
</svg>
